
<svg xmlns="http://www.w3.org/2000/svg" version="1.1" xmlns:xlink="http://www.w3.org/1999/xlink" x="0px" y="0px" width="1071" height="1038" viewBox="397 42 1071 1038">
<defs>
<g id="Layer1_0_FILL">
<path fill="#612A2D" stroke="none" d="
M 1328.2 175.65
Q 1321.55 170.5 1314.2 166.9 1303.55 161.65 1291.35 159.6 1275.85 157 1259.75 161.7 1243.55 166.45 1232.2 175.5 1221.5 184.05 1211.6 199.4
L 1189.15 193.95 1142.6 185.45
Q 1131.35 183.4 1117.2 182.75 1110.4 182.45 1091.6 182.3 1042.7 181.85 993.4 193.8 943 206.05 901.1 229.15 850.65 257 811.75 298.2 774.35 337.8 746.75 390.75 736.05 411.35 726.15 435.15 717.65 455.5 708.65 480.85
L 699.25 489.25
Q 694.15 493.8 689.25 499.9 685.55 504.45 680.65 511.7 675.4 519.5 672.6 526.3 669.1 534.6 668.7 542.7 668.05 554.5 669.45 569.6 669.95 575.35 672.6 596.35
L 676.9 631.05
Q 664.75 622.2 653.65 615.75 641.7 608.8 629.35 603.65
L 599 591
Q 595.45 589.55 591.55 589.95 587.65 590.4 585 592.65 582.45 594.85 581.05 598.4 579.6 602.1 580.1 605.7 581.9 619.15 586.2 635.3 588.5 644.05 594.7 664.25 602.6 689.9 614.55 717.7 623.4 738.35 632.75 755.6 643.1 774.7 655.05 791.5
L 624.15 792
Q 590.95 795.55 568.35 813.05 542.95 832.7 541.2 863.4
L 426.55 863.4 426.7 891.55 550.4 891.55
Q 563.7 908.25 587.9 915.9 608.15 922.25 633.55 921.65 655.15 922.4 672.85 911.9 673.85 910.75 673.95 910.6 674.7 909.85 675.1 910
L 678.2 911.15
Q 689.8 913.05 700.65 907.4 711.1 902 717.35 891.55
L 1207.9 891.3
Q 1213.45 900.95 1222.75 906.55 1232.3 912.4 1243.15 912.2
L 1249.55 910.5
Q 1263.8 918.8 1284.6 920.9 1303.95 922.85 1321.2 919.85 1339.9 916.55 1355.3 907.5 1360.9 904.2 1365 900.6 1369.45 896.65 1373.05 891.55
L 1497.9 891.55 1497.95 863.4 1382.9 863.45
Q 1382.1 841.85 1368.5 825.25 1356.15 810.15 1335 801.15 1309.85 790.65 1287.15 791.05
L 1269.75 791.35
Q 1279.25 780.1 1287.25 767.1 1294.2 755.85 1301.25 741.05 1333.5 673.8 1345.85 607.85 1347.75 597.85 1340.2 592.5 1336.95 590.25 1333.15 589.8 1329 589.3 1325.05 591.15
L 1289.55 607.55
Q 1280.15 611.9 1269.85 618.05 1261.95 622.75 1250.55 630.3
L 1254.1 605.85 1260.2 555.5
Q 1261.85 541.5 1252.7 521.4 1249.15 513.5 1242.95 505.5 1238.2 499.45 1230.45 491.55
L 1221.55 482.55
Q 1219.4 480.6 1218.2 479.45 1216.05 477.4 1215.35 475.85
L 1196.7 433.5 1173.8 377.5
Q 1166.75 360.4 1164.7 339.7 1162.55 317.65 1175.15 300.15 1186.8 283.85 1208.65 274.8
L 1214.4 284.75
Q 1225.2 303.45 1245.8 313.45 1267.75 324.15 1291.25 321.15 1315 318.1 1332.85 301.9 1345.85 290.05 1352.75 274.65 1359.65 259.35 1360.05 241.6 1360.5 223.2 1353.1 207.15 1344.3 188.1 1328.2 175.65
M 1314.65 200.7
Q 1318.55 204.45 1321.7 208.85 1325.2 213.85 1327.7 219.7 1332.4 230.85 1332.2 242.55 1332.05 252.8 1327.4 262.65 1322.9 272.35 1315.05 279.7 1297.65 296.1 1275.5 293.45 1252 290.6 1238.55 270.6 1238.4 270.4 1238.25 270.2 1232.1 261 1230.05 250.15 1230 249.9 1229.95 249.7 1227.85 238.2 1230.6 226.85 1232.45 219.4 1235.8 213.65 1239.1 207.95 1244.75 202.5 1252.6 194.95 1262.85 191.05 1273.6 187 1284.25 188.05 1303.3 189.9 1314.65 200.7
M 1314.2 626.4
L 1300.15 672.2 1289 701.95 1275.75 731.7
Q 1260.15 766.7 1234.7 790.6 1223.85 800.35 1215.8 805.7 1205 812.85 1192.8 816.85 1193.19140625 814.246484375 1193.55 811.65
L 1193.6 811.5
Q 1193.6236328125 811.3498046875 1193.65 811.2
L 1193.7 810.9 1193.75 810.45
Q 1193.765234375 810.3966796875 1193.75 810.3 1193.8005859375 810.1685546875 1193.8 810
L 1196.5 791.7 1201.4 763.5
Q 1205 742.95 1211.55 725.8 1213.755078125 720.0275390625 1215.65 715.2 1222.012109375 699.068359375 1225.05 693.3 1233.75 676.8 1247.3 666.2 1279.05 641.35 1314.2 626.4
M 1354.45 854.25
Q 1356.6 894.75 1311.65 897.55 1266.65 900.35 1280.65 871.05 1294.6 841.7 1283.9 818.4 1352.3 813.7 1354.45 854.25
M 1197.7 221.5
Q 1196 228.75 1195.75 235.6 1195.4 245.2 1198.35 256.15 1177.6 267.1 1164.7 282.1 1159.95 289.05 1154.7 296.4 1154.55 296.65 1154.4 296.9 1123.05 353.9 1180.95 457.4 1068.5 394.25 967.2 400.75 943.75 400.55 920.6 402.55 901.9 405.1 881.25 407.5 809.85 419.5 741.15 452.75 886.85 150.4 1180.05 211.3 1187.6 212.9 1199.3 215.45 1198.35 218.5 1197.7 221.5
M 842.3 444.25
Q 842.8302734375 444.1271484375 843.3 443.95 844.067578125 443.747265625 844.8 443.5 845.0533203125 443.4494140625 845.3 443.35 846.596875 442.98359375 847.9 442.6 894.6 428.85 947.05 426.05 987.35 423.95 1031.3 432 1072.9 439.6 1112.75 455.35
L 1133 464.15 1149.7 472.45 1185.2 493.9 1202.05 506.15
Q 1211.764453125 513.2708984375 1218.4 521.85 1218.79609375 522.3384765625 1219.15 522.8 1219.2103515625 522.889453125 1219.25 522.95 1219.3287109375 523.045703125 1219.35 523.1 1219.540625 523.3314453125 1219.7 523.55 1226.2625 532.64296875 1229.1 542.75 1229.5802734375 544.4439453125 1229.95 546.15 1231.020703125 551.0279296875 1230.65 557.25 1230.6275390625 557.8029296875 1230.6 558.35 1230.55 559.25 1230.5 560.15
L 1230.45 560.85
Q 1227.35 608.15 1219.95 629.85 1166.4 583.45 1123.25 564.8 1080.05 546.1 1064.7 540.95 1049.3 535.8 1022.7 531.85 991 527.35 958.9 527.4 936.25 527.45 913.7 530.1 888.8 533.1 864.65 539.6 844.2 545.05 824.6 552.9 800.5 562.5 777.95 575.15 753.4 588.85 731.45 606.45 722.3345703125 613.823828125 713.5 621.6 710.8708984375 623.984765625 708.25 626.35
L 707.4 627.15 702.75 595.75
Q 702.6958984375 595.224609375 702.6 594.7
L 702.3 592.65
Q 702.2654296875 592.2056640625 702.2 591.7
L 701.85 589.25 696.4 548.6
Q 694.56640625 517.2556640625 764.15 478.35 768.1509765625 476.1115234375 772.25 473.9 778.0578125 470.769921875 784.1 467.7 785.3453125 467.1021484375 786.55 466.5 813.5794921875 453.2140625 842.3 444.25
M 815.15 586.25
Q 817.8798828125 583.546875 820.55 581.2 862.9 623.15 908.35 638.85 922.15 643.6 933 646.3 946.1 649.55 958.3 650.75
L 988.25 653.75 974.8 640.2 961.4 626.7 950.5 611.9
Q 948.55 609.3 947.05 605.9 945.9 603.3 944.45 598.95 956.55 607.4 965.85 612.85 977.1 619.45 988.2 624 1003 630.1 1015.45 633.7 1029.95 637.95 1043.7 639.6
L 1082.05 644.15 1131.9 644.1 1155.15 641.9
Q 1158.8029296875 654.1400390625 1162 667.2 1162.2375 668.075 1162.45 668.95 1162.6296875 669.6984375 1162.8 670.45 1168.3283203125 693.7283203125 1172.45 719.55 1173.05 723.2 1175.05 731.15 1175.7556640625 734.34765625 1176 737.05 1194.083203125 853.04609375 1137.65 862.85
L 802.85 862.85
Q 762.25 867.6 753.1 816.6 743.9 765.6 752.9 700.45 756.5 674.05 768.3 649.5 777.1 631.15 790.45 613.8 801.329296875 599.686328125 815.15 586.25
M 708.95 710.6
L 712.1 718.2 722.5 749.65 730.15 802.2 731.3 807.3 733.8 818.25
Q 715.3 811 698.6 796.5
L 679.05 777.1
Q 660.05 753.85 641.85 711.95 627.4 678.65 616.1 640.15
L 612.05 626.3 632.9 636.4
Q 661.9 650.4 682.3 668.7 697.1 681.9 704.2 699.15 706.073046875 703.666015625 707.95 708.15 708.0828125 708.49921875 708.2 708.8
L 708.5 709.5 708.7 710.05
Q 708.8359375 710.3255859375 708.95 710.6
M 736.15 716.8
Q 724.25 696.9 717.15 640.75 742.2 610.45 790.15 586.75 742.4 642.9 736.15 716.8
M 942.2 630.75
Q 884.35 616.65 846.15 566.75 1036.1 497.4 1209.25 645.75 1204.65 688.25 1191.25 706.8 1176.8 661.65 1168.5 626 999.65 642.5 933.2 566.75 918.3 605.9 942.2 630.75
M 569.55 854
Q 571.7 813.45 640.1 818.15 629.4 841.45 643.35 870.8 657.35 900.1 612.35 897.3 567.4 894.5 569.55 854
M 1226.95 836.4
Q 1233.7 827.75 1243.25 827.75 1252.8 827.75 1257.9 836 1262.95 844.2 1258.25 855.25 1253.55 866.3 1253.2 876.55 1252.8 886.75 1243.25 886.75 1233.7 886.75 1226.95 878.1 1220.25 869.45 1220.25 857.25 1220.25 845.05 1226.95 836.4
M 666.1 835.75
Q 671.2 827.5 680.75 827.5 690.3 827.5 697.05 836.15 703.75 844.8 703.75 857 703.75 869.2 697.05 877.85 690.3 886.5 680.75 886.5 671.2 886.5 670.8 876.3 670.45 866.05 665.75 855 661.05 843.95 666.1 835.75
M 1003 824.05
Q 1007.75 821.4 1009.9 816.9 1012.05 812.45 1009.8 809.8 1009.35 809.15 1007.7 809.1 1006.4 809.05 1005.25 809.35
L 993.15 812.35 993.15 812.35 988.55 813.55 972.65 815.2
Q 961.95 816.35 949.8 814.3 947.430078125 813.9322265625 944.65 813.35 944.5943359375 813.3634765625 944.55 813.35 937.1541015625 811.824609375 926.9 808.9 925.65 808.55 923.85 810.3 922.05 812 922.1 813.25 922.05 814.45 922.65 816.3 923.3 818.25 924.1 818.85
L 932.4 825.45
Q 938.7546875 828.934765625 945.25 831.05 956.270703125 834.594921875 967.75 834.25 985.45 833.75 1003 824.05
M 1052.3 724.1
Q 1046.55 728.1 1043.1 734.1 1038 743.1 1038.25 753.75 1038.55 764.05 1043.7 773.4 1049.05 782.95 1059.1 786.4 1069.6 790 1078.85 784.55 1092.8 776.3 1095.3 759.8 1097.6 744.25 1088.95 731.15 1084.9 725.05 1078.6 721.8 1071.9 718.35 1064.8 719.2 1058.15 720 1052.3 724.1
M 1055.5 691.15
L 1071.5 691.25
Q 1082.3 691.3 1094.15 694.6 1102.65 696.95 1116.35 702.5 1117.55 702.95 1119.5 701.45 1121.45 699.95 1121.55 698.7 1121.7 697.5 1121.35 695.65 1120.9 693.6 1120.2 692.9
L 1112.65 685.45
Q 1096.7 674.3 1078.45 672.85 1060.8 671.45 1042.3 679.2 1037.3 681.3 1034.7 685.5 1032.05 689.7 1034 692.6 1034.4 693.25 1036 693.5 1037.3 693.7 1038.45 693.5
L 1055.5 691.15
M 874.45 723.6
Q 869.15 720.25 862.9 719.7 856.3 719.15 850.4 721.65 844.6 724.15 840.3 729.3 831.1 740.25 831.35 754.3 831.65 768.35 841.3 778.8 849.1 787.25 859.85 787.55 870.9 787.85 879.1 779.3 887.8 770.2 888.7 756.95 889.6 744.35 883.25 733.05 879.95 727.15 874.45 723.6
M 806.45 704.25
Q 807.2 705.2 809.45 705.5 811.7 705.8 813.05 705.15 838.55 693.45 863.1 693.85 868.55 693.9 879.85 695.05 888.4 695.9 892.2 695.3 893.1 695.2 894.05 693.6 895 692.05 894.75 691.15 893.7 688.05 892.75 687.25 888.4921875 683.4166015625 883.2 680.8 882.473828125 680.4400390625 881.7 680.1 873.880078125 676.5548828125 863.9 675.5 852.9181640625 674.3705078125 841.8 676.35 841.002734375 676.485546875 840.15 676.65 836.2498046875 677.4140625 832.3 678.55 832.1392578125 678.626171875 831.95 678.65 831.858203125 678.7173828125 831.75 678.75 820.25 682.25 811.6 691.05 803 699.8 806.45 704.25 Z"/>

<path fill="#AA352E" stroke="none" d="
M 680.75 827.5
Q 671.2 827.5 666.1 835.75 661.05 843.95 665.75 855 670.45 866.05 670.8 876.3 671.2 886.5 680.75 886.5 690.3 886.5 697.05 877.85 703.75 869.2 703.75 857 703.75 844.8 697.05 836.15 690.3 827.5 680.75 827.5
M 1243.25 827.75
Q 1233.7 827.75 1226.95 836.4 1220.25 845.05 1220.25 857.25 1220.25 869.45 1226.95 878.1 1233.7 886.75 1243.25 886.75 1252.8 886.75 1253.2 876.55 1253.55 866.3 1258.25 855.25 1262.95 844.2 1257.9 836 1252.8 827.75 1243.25 827.75
M 640.1 818.15
Q 571.7 813.45 569.55 854 567.4 894.5 612.35 897.3 657.35 900.1 643.35 870.8 629.4 841.45 640.1 818.15
M 846.15 566.75
Q 884.35 616.65 942.2 630.75 918.3 605.9 933.2 566.75 999.65 642.5 1168.5 626 1176.8 661.65 1191.25 706.8 1204.65 688.25 1209.25 645.75 1036.1 497.4 846.15 566.75
M 717.15 640.75
Q 724.25 696.9 736.15 716.8 742.4 642.9 790.15 586.75 742.2 610.45 717.15 640.75
M 1195.75 235.6
Q 1196 228.75 1197.7 221.5 1198.35 218.5 1199.3 215.45 1187.6 212.9 1180.05 211.3 886.85 150.4 741.15 452.75 809.85 419.5 881.25 407.5 901.9 405.1 920.6 402.55 1104.25 377.45 1154.4 296.9 1154.55 296.65 1154.7 296.4 1159.95 289.05 1164.7 282.1 1177.6 267.1 1198.35 256.15 1195.4 245.2 1195.75 235.6
M 1311.65 897.55
Q 1356.6 894.75 1354.45 854.25 1352.3 813.7 1283.9 818.4 1294.6 841.7 1280.65 871.05 1266.65 900.35 1311.65 897.55 Z"/>

<path fill="#EAC6A6" stroke="none" d="
M 708.45 709.45
L 708.2 708.8
Q 708.0828125 708.49921875 707.95 708.15 706.073046875 703.666015625 704.2 699.15 697.1 681.9 682.3 668.7 661.9 650.4 632.9 636.4
L 612.05 626.3 616.1 640.15
Q 627.4 678.65 641.85 711.95 660.05 753.85 679.05 777.1
L 698.6 796.5
Q 715.3 811 733.8 818.25
L 731.3 807.3
Q 700.05 782.7 674.15 737.85 650.75 697.3 643.85 661.25 676.1431640625 677.1466796875 708.45 709.45
M 792.5 614.9
Q 791.4865234375 614.362109375 790.45 613.8 777.1 631.15 768.3 649.5 756.5 674.05 752.9 700.45 743.9 765.6 753.1 816.6 762.25 867.6 802.85 862.85
L 1137.65 862.85
Q 1194.083203125 853.04609375 1176 737.05 1175.7556640625 734.34765625 1175.05 731.15 1173.05 723.2 1172.45 719.55 1168.3283203125 693.7283203125 1162.8 670.45 1162.6296875 669.6984375 1162.45 668.95
L 1162.4 668.95
Q 1063.68515625 675.8939453125 974.8 640.2
L 988.25 653.75
Q 970.7 663.45 948.2 664.3 925.65 665.15 894.65 659.35 864.0890625 653.5828125 792.5 614.9
M 809.45 705.5
Q 807.2 705.2 806.45 704.25 803 699.8 811.6 691.05 820.25 682.25 831.75 678.75 831.858203125 678.7173828125 831.95 678.65 832.1392578125 678.626171875 832.3 678.55 836.2498046875 677.4140625 840.15 676.65 841.002734375 676.485546875 841.8 676.35 852.9181640625 674.3705078125 863.9 675.5 873.880078125 676.5548828125 881.7 680.1 882.11796875 680.26953125 882.5 680.45 882.85625 680.61875 883.2 680.8 888.4921875 683.4166015625 892.75 687.25 893.7 688.05 894.75 691.15 895 692.05 894.05 693.6 893.1 695.2 892.2 695.3 888.4 695.9 879.85 695.05 868.55 693.9 863.1 693.85 838.55 693.45 813.05 705.15 811.7 705.8 809.45 705.5
M 862.9 719.7
Q 869.15 720.25 874.45 723.6 879.95 727.15 883.25 733.05 889.6 744.35 888.7 756.95 887.8 770.2 879.1 779.3 870.9 787.85 859.85 787.55 849.1 787.25 841.3 778.8 831.65 768.35 831.35 754.3 831.1 740.25 840.3 729.3 844.6 724.15 850.4 721.65 856.3 719.15 862.9 719.7
M 1071.5 691.25
L 1055.5 691.15 1038.45 693.5
Q 1037.3 693.7 1036 693.5 1034.4 693.25 1034 692.6 1032.05 689.7 1034.7 685.5 1037.3 681.3 1042.3 679.2 1060.8 671.45 1078.45 672.85 1096.7 674.3 1112.65 685.45
L 1120.2 692.9
Q 1120.9 693.6 1121.35 695.65 1121.7 697.5 1121.55 698.7 1121.45 699.95 1119.5 701.45 1117.55 702.95 1116.35 702.5 1102.65 696.95 1094.15 694.6 1082.3 691.3 1071.5 691.25
M 1043.1 734.1
Q 1046.55 728.1 1052.3 724.1 1058.15 720 1064.8 719.2 1071.9 718.35 1078.6 721.8 1084.9 725.05 1088.95 731.15 1097.6 744.25 1095.3 759.8 1092.8 776.3 1078.85 784.55 1069.6 790 1059.1 786.4 1049.05 782.95 1043.7 773.4 1038.55 764.05 1038.25 753.75 1038 743.1 1043.1 734.1
M 1009.9 816.9
Q 1007.75 821.4 1003 824.05 985.45 833.75 967.75 834.25 956.270703125 834.594921875 945.25 831.05 938.7546875 828.934765625 932.4 825.45
L 924.1 818.85
Q 923.3 818.25 922.65 816.3 922.05 814.45 922.1 813.25 922.05 812 923.85 810.3 925.65 808.55 926.9 808.9 937.1541015625 811.824609375 944.55 813.35
L 945.25 813.4 944.65 813.35
Q 947.430078125 813.9322265625 949.8 814.3 961.95 816.35 972.65 815.2
L 988.55 813.55 993.15 812.35 993.15 812.35 1005.25 809.35
Q 1006.4 809.05 1007.7 809.1 1009.35 809.15 1009.8 809.8 1012.05 812.45 1009.9 816.9
M 1300.15 672.2
L 1314.2 626.4
Q 1279.05 641.35 1247.3 666.2 1233.75 676.8 1225.05 693.3 1222.012109375 699.068359375 1215.65 715.2 1218.25 712.5 1221 709.75 1253.45 677.2 1285.85 661.25 1279 697.3 1255.55 737.85 1229.15 783.65 1197.1 808.3 1195.35 809.65 1193.7 810.9
L 1193.65 811.2
Q 1193.6236328125 811.3498046875 1193.6 811.5
L 1193.55 811.65
Q 1193.19140625 814.246484375 1192.8 816.85 1205 812.85 1215.8 805.7 1223.85 800.35 1234.7 790.6 1260.15 766.7 1275.75 731.7
L 1289 701.95 1300.15 672.2 Z"/>

<path fill="#CF946B" stroke="none" d="
M 712.1 718.2
L 708.95 710.6
Q 708.8359375 710.3255859375 708.7 710.05
L 708.5 709.5 708.45 709.45
Q 676.1431640625 677.1466796875 643.85 661.25 650.75 697.3 674.15 737.85 700.05 782.7 731.3 807.3
L 730.15 802.2 722.5 749.65 712.1 718.2
M 950.5 611.9
L 961.4 626.7 974.8 640.2
Q 1063.68515625 675.8939453125 1162.4 668.95
L 1162.45 668.95
Q 1162.2375 668.075 1162 667.2 1158.8029296875 654.1400390625 1155.15 641.9
L 1131.9 644.1 1082.05 644.15 1043.7 639.6
Q 1029.95 637.95 1015.45 633.7 1003 630.1 988.2 624 977.1 619.45 965.85 612.85 956.55 607.4 944.45 598.95 945.9 603.3 947.05 605.9 948.55 609.3 950.5 611.9
M 820.55 581.2
Q 817.8798828125 583.546875 815.15 586.25 801.329296875 599.686328125 790.45 613.8 791.4865234375 614.362109375 792.5 614.9 864.0890625 653.5828125 894.65 659.35 925.65 665.15 948.2 664.3 970.7 663.45 988.25 653.75
L 958.3 650.75
Q 946.1 649.55 933 646.3 922.15 643.6 908.35 638.85 862.9 623.15 820.55 581.2
M 1201.4 763.5
L 1196.5 791.7 1193.8 810
Q 1193.8005859375 810.1685546875 1193.75 810.3 1193.765234375 810.3966796875 1193.75 810.45
L 1193.7 810.9
Q 1195.35 809.65 1197.1 808.3 1229.15 783.65 1255.55 737.85 1279 697.3 1285.85 661.25 1253.45 677.2 1221 709.75 1218.25 712.5 1215.65 715.2 1213.755078125 720.0275390625 1211.55 725.8 1205 742.95 1201.4 763.5 Z"/>

<path fill="#CCCCCC" stroke="none" d="
M 824.6 552.9
Q 844.2 545.05 864.65 539.6 888.8 533.1 913.7 530.1 936.25 527.45 958.9 527.4 991 527.35 1022.7 531.85 1049.3 535.8 1064.7 540.95 1080.05 546.1 1123.25 564.8 1166.4 583.45 1219.95 629.85 1227.35 608.15 1230.45 560.85
L 1230.5 560.15
Q 1230.55 559.25 1230.6 558.35 1230.6275390625 557.8029296875 1230.65 557.25 1230.8830078125 549.7515625 1229.1 542.75 1226.2625 532.64296875 1219.7 523.55 1219.540625 523.3314453125 1219.35 523.1 1219.3287109375 523.045703125 1219.25 522.95 1219.2103515625 522.889453125 1219.15 522.8 1218.9478515625 522.5501953125 1218.75 522.3 1218.25 545 1215.85 571.6 1213.4 598.2 1194.55 582.25 1175.65 566.25 1141.9 546.4 1108.1 526.5 1080.05 517.2 1053.4 508.25 1025.8 502.65 998.75 497.2 971.1 495.65 941.7 493.95 912.4 496.95 883.95 499.5 856.45 507.1 830.3 514.15 805.3 524.5 780.25 534.8 756.95 548.6 732.55 563.05 710.9 581.55 706.35 585.35 701.85 589.25
L 702.2 591.7
Q 702.2654296875 592.2056640625 702.3 592.65
L 702.6 594.7
Q 702.6958984375 595.224609375 702.75 595.75
L 707.4 627.15 708.25 626.35
Q 710.8708984375 623.984765625 713.5 621.6 722.3345703125 613.823828125 731.45 606.45 753.4 588.85 777.95 575.15 800.5 562.5 824.6 552.9
M 1327.7 219.7
Q 1325.2 213.85 1321.7 208.85 1319 232.85 1301.2 250.6 1280.3 271.55 1250.7 271.55 1244.4 271.55 1238.55 270.6 1252 290.6 1275.5 293.45 1297.65 296.1 1315.05 279.7 1322.9 272.35 1327.4 262.65 1332.05 252.8 1332.2 242.55 1332.4 230.85 1327.7 219.7 Z"/>

<path fill="#FFFFFF" stroke="none" d="
M 843.3 443.95
Q 842.8302734375 444.1271484375 842.3 444.25 813.5794921875 453.2140625 786.55 466.5 786.243359375 466.680078125 785.9 466.85 785.011328125 467.2947265625 784.1 467.7 778.0578125 470.769921875 772.25 473.9 768.1509765625 476.1115234375 764.15 478.35 694.56640625 517.2556640625 696.4 548.6
L 701.85 589.25
Q 706.35 585.35 710.9 581.55 732.55 563.05 756.95 548.6 780.25 534.8 805.3 524.5 830.3 514.15 856.45 507.1 883.95 499.5 912.4 496.95 941.7 493.95 971.1 495.65 998.75 497.2 1025.8 502.65 1053.4 508.25 1080.05 517.2 1108.1 526.5 1141.9 546.4 1175.65 566.25 1194.55 582.25 1213.4 598.2 1215.85 571.6 1218.25 545 1218.75 522.3 1218.591796875 522.092578125 1218.4 521.85 1211.764453125 513.2708984375 1202.05 506.15
L 1185.2 493.9 1149.7 472.45 1133 464.15 1112.75 455.35
Q 1072.9 439.6 1031.3 432 987.35 423.95 947.05 426.05 894.6 428.85 847.9 442.6 846.596875 442.98359375 845.3 443.35 845.0533203125 443.4494140625 844.8 443.5 844.067578125 443.747265625 843.3 443.95
M 1321.7 208.85
Q 1318.55 204.45 1314.65 200.7 1303.3 189.9 1284.25 188.05 1273.6 187 1262.85 191.05 1252.6 194.95 1244.75 202.5 1239.1 207.95 1235.8 213.65 1232.45 219.4 1230.6 226.85 1227.85 238.2 1229.95 249.7 1230 249.9 1230.05 250.15 1232.1 261 1238.25 270.2 1238.4 270.4 1238.55 270.6 1244.4 271.55 1250.7 271.55 1280.3 271.55 1301.2 250.6 1319 232.85 1321.7 208.85 Z"/>

<path fill="#8C332E" stroke="none" d="
M 920.6 402.55
Q 943.75 400.55 967.2 400.75 1068.5 394.25 1180.95 457.4 1123.05 353.9 1154.4 296.9 1104.25 377.45 920.6 402.55 Z"/>
</g>

<g id="Layer1_1_FILL">
<path fill="#EAC6A6" stroke="none" d="
M -117.55 777.45
L -106.4 747.7 -92.35 701.9
Q -127.5 716.85 -159.25 741.7 -172.8 752.3 -181.5 768.8 -185.45 776.3 -195 801.3 -201.55 818.45 -205.15 839
L -210.05 867.2 -213.75 892.35
Q -201.55 888.35 -190.75 881.2 -182.7 875.85 -171.85 866.1 -146.4 842.2 -130.8 807.2
L -117.55 777.45 Z"/>
</g>

<g id="Layer1_2_FILL">
<path fill="#EAC6A6" stroke="none" d="
M -773.65 711.9
L -794.5 701.8 -790.45 715.65
Q -779.15 754.15 -764.7 787.45 -746.5 829.35 -727.5 852.6
L -707.95 872
Q -691.25 886.5 -672.75 893.75
L -676.4 877.7 -684.05 825.15 -694.45 793.7 -702.35 774.65
Q -709.45 757.4 -724.25 744.2 -744.65 725.9 -773.65 711.9 Z"/>
</g>

<g id="Layer1_3_FILL">
<path fill="#612A2D" stroke="none" d="
M 1120.1 48.5
Q 1111.3 29.45 1095.2 17 1088.5666015625 11.8611328125 1081.15 8.25 1070.54453125 3.016796875 1058.35 0.95 1042.85 -1.65 1026.75 3.05 1010.55 7.8 999.2 16.85 988.5 25.4 978.6 40.75
L 956.15 35.3 909.6 26.8
Q 898.35 24.75 884.2 24.1 877.4 23.8 858.6 23.65 809.7 23.2 760.4 35.15 710 47.4 668.1 70.5 617.65 98.35 578.75 139.55 541.35 179.15 513.75 232.1 503.05 252.7 493.15 276.5 484.65 296.85 475.65 322.2
L 466.25 330.6
Q 461.15 335.15 456.25 341.25 452.55 345.8 447.65 353.05 442.4 360.85 439.6 367.65 436.1 375.95 435.7 384.05 435.05 395.85 436.45 410.95 436.95 416.7 439.6 437.7
L 443.9 472.4
Q 431.75 463.55 420.65 457.1 408.7 450.15 396.35 445
L 366 432.35
Q 362.45 430.9 358.55 431.3 354.65 431.75 352 434 349.45 436.2 348.05 439.75 346.6 443.45 347.1 447.05 348.9 460.5 353.2 476.65 355.5 485.4 361.7 505.6 369.6 531.25 381.55 559.05 390.4 579.7 399.75 596.95 410.1 616.05 422.05 632.85
L 391.15 633.35
Q 357.95 636.9 335.35 654.4 309.95 674.05 308.2 704.75
L 193.55 704.75 193.7 732.9 317.4 732.9
Q 330.7 749.6 354.9 757.25 375.15 763.6 400.55 763 422.15 763.75 439.85 753.25 440.85 752.1 440.95 751.95 441.7 751.2 442.1 751.35
L 445.2 752.5
Q 456.8 754.4 467.65 748.75 478.1 743.35 484.35 732.9
L 974.9 732.65
Q 980.45 742.3 989.75 747.9 999.3 753.75 1010.15 753.55
L 1016.55 751.85
Q 1030.8 760.15 1051.6 762.25 1070.95 764.2 1088.2 761.2 1106.9 757.9 1122.3 748.85 1127.9 745.55 1132 741.95 1136.45 738 1140.05 732.9
L 1264.9 732.9 1264.95 704.75 1149.9 704.8
Q 1149.1 683.2 1135.5 666.6 1123.15 651.5 1102 642.5 1076.85 632 1054.15 632.4
L 1036.75 632.7
Q 1046.25 621.45 1054.25 608.45 1061.2 597.2 1068.25 582.4 1100.5 515.15 1112.85 449.2 1114.75 439.2 1107.2 433.85 1103.95 431.6 1100.15 431.15 1096 430.65 1092.05 432.5
L 1056.55 448.9
Q 1047.15 453.25 1036.85 459.4 1028.95 464.1 1017.55 471.65
L 1021.1 447.2 1027.2 396.85
Q 1028.85 382.85 1019.7 362.75 1016.15 354.85 1009.95 346.85 1005.2 340.8 997.45 332.9
L 988.55 323.9
Q 986.4 321.95 985.2 320.8 983.05 318.75 982.35 317.2
L 963.7 274.85 940.8 218.85
Q 933.75 201.75 931.7 181.05 929.55 159 942.15 141.5 953.8 125.2 975.65 116.15
L 981.4 126.1
Q 992.2 144.8 1012.8 154.8 1034.75 165.5 1058.25 162.5 1082 159.45 1099.85 143.25 1112.85 131.4 1119.75 116 1126.65 100.7 1127.05 82.95 1127.5 64.55 1120.1 48.5
M 1094.7 61.05
Q 1099.4 72.2 1099.2 83.9 1099.05 94.15 1094.4 104 1089.9 113.7 1082.05 121.05 1064.65 137.45 1042.5 134.8 1018.9876953125 131.9291015625 1005.5 111.95 1005.38515625 111.7537109375 1005.25 111.55 999.119140625 102.329296875 997 91.45 996.9890625 91.26171875 996.95 91.05 994.85 79.55 997.6 68.2 999.45 60.75 1002.8 55 1006.1 49.3 1011.75 43.85 1019.6 36.3 1029.85 32.4 1040.6 28.35 1051.25 29.4 1070.3 31.25 1081.65 42.05 1085.5625 45.775 1088.65 50.15 1092.2021484375 55.1775390625 1094.7 61.05
M 986.7 364.9
Q 994.35 375.5 996.95 387.5 998.3 393.65 997.35 401.95 996.8 406.75 995.2 416.3
L 990.3 451.5 986.95 471.2
Q 973.55 456.45 957.45 443.9 941.4 431.35 923.7 421.75
L 900.35 409.05
Q 885.2 400.85 866.8 393.8 851.95 388.1 831.65 381.95 817.95 377.8 800.45 374.65 791.75 373.1 768.65 369.7
L 740.55 367.55 719.3 367.4
Q 689.1 368.9 665.6 373 640.05 377.4 613.05 386.35 580.45 397.1 551.3 412 517.2 429.45 496.2 448.6
L 474.4 468.5 469.45 435 463.4 389.95 467.05 377.35
Q 469.45 369 477.05 361.4
L 493.05 345.55
Q 506.4 334.7 523.25 324.45 566.65 298.15 614.9 283.95 661.6 270.2 714.05 267.4 754.35 265.3 798.3 273.35 839.9 280.95 879.75 296.7
L 900 305.5 916.7 313.8 952.2 335.25 969.05 347.5
Q 979.7 355.3 986.7 364.9
M 962.75 76.9
Q 962.409375 86.5681640625 965.35 97.5 944.6 108.4376953125 931.65 123.45 926.970703125 130.424609375 921.7 137.75 921.5568359375 137.9822265625 921.4 138.2 890.0509765625 195.2603515625 947.95 298.75 835.4998046875 235.613671875 734.2 242.1 710.766015625 241.88984375 687.6 243.85 668.889453125 246.425 648.25 248.85 576.871875 260.85390625 508.15 294.1 653.8478515625 -8.2396484375 947.05 52.65 954.62421875 54.23359375 966.3 56.8 965.3650390625 59.8525390625 964.65 62.8 962.9916015625 70.087890625 962.75 76.9
M 898.9 485.45
L 922.15 483.25
Q 932.7 518.65 939.45 560.9 940.05 564.55 942.05 572.5 943.65 579.75 942.9 584.4
L 937.25 620.7 924.9 683.25
Q 922.6 694.75 865.25 704.2 862.453515625 686.47578125 924.9 683.25 714.7755859375 669.4189453125 642.65 681.2 570.5234375 693.020703125 549.7 676.65 541.9255859375 670.5478515625 536.25 662.05 526.7669921875 647.8708984375 523.15 627.1
L 520.05 609.35
Q 519.873828125 608.332421875 519.7 607.35 518.2060546875 598.5 517.8 594.35 517 585.85 517.95 579.15 520.9 558.55 523.25 547.25 526.8 529.9 531.85 516.3
L 541.95 489.25
Q 547.85 473.45 561.1 453.9 574.75 433.8 587.55 422.55 629.9 464.5 675.35 480.2 689.15 484.95 700 487.65 713.1 490.9 725.3 492.1
L 755.25 495.1 728.4 468.05 717.5 453.25
Q 715.55 450.65 714.05 447.25 712.9 444.65 711.45 440.3 723.55 448.75 732.85 454.2 744.1 460.8 755.2 465.35 770 471.45 782.45 475.05 796.95 479.3 810.7 480.95
L 849.05 485.5 898.9 485.45
M 963.5 633.05
L 968.4 604.85
Q 972 584.3 978.55 567.15 980.751953125 561.385546875 982.65 556.55 989.0107421875 540.420703125 992.05 534.65 1000.75 518.15 1014.3 507.55 1046.05 482.7 1081.2 467.75
L 1067.15 513.55 1056 543.3 1042.75 573.05
Q 1027.15 608.05 1001.7 631.95 990.85 641.7 982.8 647.05 972 654.2 959.8 658.2
L 960.65 652.2 963.5 633.05
M 383.1 481.5
L 379.05 467.65 399.9 477.75
Q 428.9 491.75 449.3 510.05 464.1 523.25 471.2 540.5
L 475.45 550.8 479.1 559.55 489.5 591 497.15 643.55 498.3 648.65 500.8 659.6
Q 482.3 652.35 465.6 637.85
L 446.05 618.45
Q 427.05 595.2 408.85 553.3 394.4 520 383.1 481.5 Z"/>

<path fill="#CF946B" stroke="none" d="
M 479.1 559.55
L 475.45 550.8
Q 443.168359375 518.4853515625 410.85 502.6 417.75 538.65 441.15 579.2 467.065625 624.0748046875 498.3 648.65
L 497.15 643.55 489.5 591 479.1 559.55
M 968.4 604.85
L 963.5 633.05 960.65 652.2
Q 962.3708984375 650.9888671875 964.1 649.65 996.15 625 1022.55 579.2 1046 538.65 1052.85 502.6 1020.45 518.55 988 551.1 985.2703125 553.826171875 982.65 556.55 980.751953125 561.385546875 978.55 567.15 972 584.3 968.4 604.85 Z"/>

<path fill="#8C332E" stroke="none" d="
M 687.6 243.85
Q 710.766015625 241.88984375 734.2 242.1 835.4998046875 235.613671875 947.95 298.75 890.0509765625 195.2603515625 921.4 138.2 871.2423828125 218.8087890625 687.6 243.85 Z"/>

<path fill="#AA352E" stroke="none" d="
M 965.35 97.5
Q 962.409375 86.5681640625 962.75 76.9 962.9916015625 70.087890625 964.65 62.8 965.3650390625 59.8525390625 966.3 56.8 954.62421875 54.23359375 947.05 52.65 653.8478515625 -8.2396484375 508.15 294.1 576.871875 260.85390625 648.25 248.85 668.889453125 246.425 687.6 243.85 871.2423828125 218.8087890625 921.4 138.2 921.5568359375 137.9822265625 921.7 137.75 926.970703125 130.424609375 931.65 123.45 944.6 108.4376953125 965.35 97.5 Z"/>

<path fill="#FFFFFF" stroke="none" d="
M 1068.2 91.95
Q 1085.9904296875 74.2021484375 1088.65 50.15 1085.5625 45.775 1081.65 42.05 1070.3 31.25 1051.25 29.4 1040.6 28.35 1029.85 32.4 1019.6 36.3 1011.75 43.85 1006.1 49.3 1002.8 55 999.45 60.75 997.6 68.2 994.85 79.55 996.95 91.05 996.9890625 91.26171875 997 91.45 999.119140625 102.329296875 1005.25 111.55 1005.38515625 111.7537109375 1005.5 111.95 1011.415625 112.9 1017.7 112.9 1047.3 112.9 1068.2 91.95 Z"/>

<path fill="#CCCCCC" stroke="none" d="
M 1088.65 50.15
Q 1085.9904296875 74.2021484375 1068.2 91.95 1047.3 112.9 1017.7 112.9 1011.415625 112.9 1005.5 111.95 1018.9876953125 131.9291015625 1042.5 134.8 1064.65 137.45 1082.05 121.05 1089.9 113.7 1094.4 104 1099.05 94.15 1099.2 83.9 1099.4 72.2 1094.7 61.05 1092.2021484375 55.1775390625 1088.65 50.15 Z"/>
</g>

<g id="Layer1_4_FILL">
<path fill="#FFFFFF" stroke="none" d="
M -524.95 1046.85
L -554.05 1046.4 -635.95 1046.1 -636.85 1056.3 -636.85 1268.05 -511.25 1267.8
Q -489.9 1267.8 -466.3 1256 -459.15 1251.05 -454.55 1246.25 -449.15 1240.6 -446 1234 -438.35 1218 -440 1199.95 -441.65 1181.25 -452.65 1168.8 -456.85 1164.05 -462.85 1159.7 -466.55 1157 -475.15 1151.65 -458.25 1141.2 -452 1123.45 -445.95 1106.25 -451.8 1087.9 -458.05 1066.05 -480.05 1055.65 -498.1 1047.1 -524.95 1046.85
M -506.15 1096.7
Q -502.3 1101.05 -500.85 1106.1 -499.3 1111.4 -500.6 1116.7 -503.25 1127.75 -514.75 1132.25 -523.2 1135.5 -538.4 1135.6
L -585.1 1135.9 -584.95 1087.55 -531 1087.95
Q -522.95 1088.05 -517.55 1089.65 -510.55 1091.75 -506.15 1096.7
M -522.5 1175.3
Q -515.9 1176.4 -511.95 1177.45 -506.55 1178.95 -502.35 1181.35 -492.65 1188.85 -492.75 1202.7 -492.75 1209.65 -496.55 1214.9 -500.3 1220.1 -506.8 1222.4
L -523.5 1225.95 -585 1225.95 -585.05 1175.1 -522.5 1175.3 Z"/>
</g>

<g id="Layer1_5_FILL">
<path fill="#FFFFFF" stroke="none" d="
M -817.7 1069.95
L -837.3 1046.05 -848 1045.6 -882.05 1045.95 -882.05 1268.1 -831.05 1268.1 -831 1135.6 -732.2 1261.1 -725.65 1268.15 -681.05 1268.05 -681.1 1064.9
Q -681.45 1059.5 -681.6 1057.15 -681.8 1053.15 -680.8 1049.85 -681.1 1048.95 -681.65 1047.75 -682.3 1046.5 -682.75 1046
L -733.1 1046.05 -733.2 1176.15 -751.4 1154.3 -817.7 1069.95 Z"/>
</g>

<g id="Layer1_6_FILL">
<path fill="#FFFFFF" stroke="none" d="
M -190.95 1117.2
Q -201.6 1145.45 -196.05 1177.7 -190.5 1210.25 -170.75 1232.7 -158 1247.2 -142 1256.4 -125.95 1265.6 -107.1 1269.2 -77.9 1274.8 -53.8 1270.2 -36.05 1266.8 -20.85 1258.75 -5.35 1250.5 6.65 1237.75
L 12.55 1230.75 -22.75 1198.25 -30.55 1207.75
Q -50.95 1227 -81 1225 -98 1223.95 -111.5 1216.25 -125.5 1208.25 -134 1194 -147.5 1171.25 -143.2 1144.95 -138.85 1118.5 -118.45 1101.6 -105.95 1091.2 -89.55 1088.15 -73.8 1085.25 -57.3 1089.65 -44.05 1093.15 -32.25 1103.05 -26.4 1108 -22.4 1112.4 -21.5 1112.6 -18.9 1110.15
L 11.65 1080.5
Q 4.15 1072.35 -1.2 1067.6 -8.45 1061.2 -16 1057.1 -40.4 1043.8 -67.6 1041.4 -93.85 1039.1 -118.45 1047.35 -143.2 1055.7 -161.8 1073.2 -181.3 1091.55 -190.95 1117.2 Z"/>
</g>

<g id="Layer1_7_FILL">
<path fill="#FFFFFF" stroke="none" d="
M -210.45 1080.2
Q -219.75 1070.65 -221.75 1068.8 -228.1 1062.8 -234.1 1059.2 -257.9 1044.8 -288.65 1041.65 -312.45 1039.3 -335.5 1046.1 -358.5 1052.9 -377.1 1067.8 -395.65 1082.7 -406.55 1103.8 -417.1 1124.2 -419.65 1148.5 -420.55 1157 -419.4 1166.9 -418.65 1173.35 -416.25 1185.25 -412.9 1201.8 -404.6 1216.15 -396.35 1230.4 -383.7 1241.8 -366.75 1257.15 -344.35 1264.95 -323.5 1272.2 -298.95 1272.55 -272.25 1272.9 -249.65 1262.55 -226.15 1251.8 -210.45 1230.95
L -244.75 1198.95 -249.55 1204.6
Q -253.85 1209.7 -260.45 1214 -265.5 1217.25 -273.3 1220.8 -282.5 1225 -296 1225.15 -309 1225.4 -320.4 1221.75 -332.6 1217.85 -341.65 1209.95 -354.35 1198.95 -360.6 1184.4 -366.95 1169.65 -365.95 1153.05 -364.65 1131.8 -352.8 1115.45 -339.85 1097.65 -319.85 1090.7 -299.8 1083.8 -278.65 1089.85 -260.4 1095 -249.45 1107.6 -246.5 1110.95 -244.25 1112.65
L -236.35 1105.8 -210.45 1080.2 Z"/>
</g>

<g id="Layer1_8_FILL">
<path fill="#CF946B" stroke="none" d="
M 725.3 492.1
Q 713.1 490.9 700 487.65 689.15 484.95 675.35 480.2 629.9 464.5 587.55 422.55 570.380078125 438.3720703125 557.45 455.15 630.65 494.8564453125 661.65 500.65 692.653515625 506.4859375 715.15 505.65 737.6859375 504.8244140625 755.25 495.1
L 725.3 492.1
M 922.15 483.25
L 898.9 485.45 849.05 485.5 810.7 480.95
Q 796.95 479.3 782.45 475.05 770 471.45 755.2 465.35 744.1 460.8 732.85 454.2 723.55 448.75 711.45 440.3 712.9 444.65 714.05 447.25 715.55 450.65 717.5 453.25
L 728.4 468.05 741.8 481.55
Q 830.6904296875 517.25390625 929.4 510.3 926.041015625 496.30625 922.15 483.25 Z"/>

<path fill="#EAC6A6" stroke="none" d="
M 942.05 572.5
Q 940.05 564.55 939.45 560.9 935.189453125 534.2326171875 929.4 510.3 830.6904296875 517.25390625 741.8 481.55
L 755.25 495.1
Q 737.6859375 504.8244140625 715.15 505.65 692.653515625 506.4859375 661.65 500.65 630.65 494.8564453125 557.45 455.15 544.1099609375 472.4771484375 535.3 490.8 523.5201171875 515.39296875 519.85 541.75 510.8763671875 606.9279296875 520.05 657.95 529.27421875 708.9693359375 569.85 704.2
L 904.65 704.2
Q 962.479296875 694.1439453125 942.05 572.5
M 883.35 543.85
Q 869.65 538.3 861.15 535.95 849.3 532.65 838.5 532.6
L 822.5 532.5 805.45 534.85
Q 804.3 535.05 803 534.85 801.4 534.6 801 533.95 799.05 531.05 801.7 526.85 804.3 522.65 809.3 520.55 827.8 512.8 845.45 514.2 863.7 515.65 879.65 526.8
L 887.2 534.25
Q 887.9 534.95 888.35 537 888.7 538.85 888.55 540.05 888.45 541.3 886.5 542.8 884.55 544.3 883.35 543.85
M 810.1 575.45
Q 813.55 569.45 819.3 565.45 825.15 561.35 831.8 560.55 838.9 559.7 845.6 563.15 851.9 566.4 855.95 572.5 864.6 585.6 862.3 601.15 859.8 617.65 845.85 625.9 836.6 631.35 826.1 627.75 816.05 624.3 810.7 614.75 805.55 605.4 805.25 595.1 805 584.45 810.1 575.45
M 649.45 521.8
Q 655.2068359375 524.51328125 659.75 528.6 660.7 529.4 661.75 532.5 662 533.4 661.05 534.95 660.1 536.55 659.2 536.65 655.4 537.25 646.85 536.4 635.55 535.25 630.1 535.2 605.55 534.8 580.05 546.5 578.7 547.15 576.45 546.85 574.2 546.55 573.45 545.6 570 541.15 578.6 532.4 587.25 523.6 598.75 520.1 603.52578125 518.65546875 608.25 517.75 619.6521484375 515.686328125 630.9 516.85 641.3732421875 517.96171875 649.45 521.8
M 755.55 652.65
Q 758.55 652.4 761.15 654.4 763.55 656.2 764.35 658.75 765.3 661.75 764.2 664.85 763.05 668.15 760.05 669.65 757.4 671 753.15 671.5 750.55 671.8 745.6 671.9
L 715.1 672.3
Q 712.5 672.35 707.4 672.65 703.1 672.65 700.5 671.15 697.7 669.55 696.6 666.65 695.5 663.95 696.4 661.4 697.65 657.9 699.85 656 702.4 653.7 705.85 654.1
L 720.5 655.65 755.55 652.65
M 650.25 574.4
Q 656.6 585.7 655.7 598.3 654.8 611.55 646.1 620.65 637.9 629.2 626.85 628.9 616.1 628.6 608.3 620.15 598.65 609.7 598.35 595.65 598.1 581.6 607.3 570.65 611.6 565.5 617.4 563 623.3 560.5 629.9 561.05 636.15 561.6 641.45 564.95 646.95 568.5 650.25 574.4 Z"/>
</g>

<g id="Layer1_9_FILL">
<path fill="#FFFFFF" stroke="none" d="
M 738.1 337
Q 765.75 338.55 792.8 344 820.4 349.6 847.05 358.55 875.1029296875 367.8546875 908.85 387.7 942.643359375 407.583984375 961.5 423.55 980.4 439.5671875 982.8 412.95 985.2552734375 386.3357421875 985.75 363.6 978.983984375 354.7755859375 969.05 347.5
L 952.2 335.25 916.7 313.8 900 305.5 879.75 296.7
Q 839.9 280.95 798.3 273.35 754.35 265.3 714.05 267.4 661.6 270.2 614.9 283.95 582.8228515625 293.390234375 552.9 308.15 461.2958984375 354.0466796875 463.4 389.95
L 468.85 430.6
Q 473.35 426.7 477.9 422.9 499.55 404.4 523.95 389.95 547.25 376.15 572.3 365.85 597.3 355.5 623.45 348.45 650.95 340.85 679.4 338.3 708.7 335.3 738.1 337 Z"/>

<path fill="#CCCCCC" stroke="none" d="
M 680.7 371.45
Q 703.25 368.8 725.9 368.75 758 368.7 789.7 373.2 816.2962890625 377.151953125 831.65 382.3 847.0607421875 387.444140625 890.2 406.1 933.385546875 424.8078125 986.95 471.2 994.3279296875 449.4849609375 997.4 402.2
L 997.45 401.45
Q 997.557421875 400.5818359375 997.6 399.7 998.5919921875 379.8986328125 985.75 363.6 985.2552734375 386.3357421875 982.8 412.95 980.4 439.5671875 961.5 423.55 942.643359375 407.583984375 908.85 387.7 875.1029296875 367.8546875 847.05 358.55 820.4 349.6 792.8 344 765.75 338.55 738.1 337 708.7 335.3 679.4 338.3 650.95 340.85 623.45 348.45 597.3 355.5 572.3 365.85 547.25 376.15 523.95 389.95 499.55 404.4 477.9 422.9 473.35 426.7 468.85 430.6
L 474.4 468.5
Q 486.15 457.75 498.45 447.8 520.4 430.2 544.95 416.5 567.5 403.85 591.6 394.25 611.2 386.4 631.65 380.95 655.8 374.45 680.7 371.45 Z"/>
</g>

<g id="Layer1_10_FILL">
<path fill="#612A2D" stroke="none" d="
M -311.25 835.3
Q -308.95 819.75 -317.6 806.65 -321.65 800.55 -327.95 797.3 -334.65 793.85 -341.75 794.7 -348.4 795.5 -354.25 799.6 -360 803.6 -363.45 809.6 -368.55 818.6 -368.3 829.25 -368 839.55 -362.85 848.9 -357.5 858.45 -347.45 861.9 -336.95 865.5 -327.7 860.05 -313.75 851.8 -311.25 835.3 Z"/>
</g>

<g id="Layer1_11_FILL">
<path fill="#612A2D" stroke="none" d="
M -517.85 832.45
Q -516.95 819.85 -523.3 808.55 -526.6 802.65 -532.1 799.1 -537.4 795.75 -543.65 795.2 -550.25 794.65 -556.15 797.15 -561.95 799.65 -566.25 804.8 -575.45 815.75 -575.2 829.8 -574.9 843.85 -565.25 854.3 -557.45 862.75 -546.7 863.05 -535.65 863.35 -527.45 854.8 -518.75 845.7 -517.85 832.45 Z"/>
</g>

<g id="Layer1_12_FILL">
<path fill="#612A2D" stroke="none" d="
M -574.8 754.25
Q -586.3 757.75 -594.95 766.55 -603.55 775.3 -600.1 779.75 -599.35 780.7 -597.1 781 -594.85 781.3 -593.5 780.65 -568 768.95 -543.45 769.35 -538 769.4 -526.7 770.55 -518.15 771.4 -514.35 770.8 -513.45 770.7 -512.5 769.1 -511.55 767.55 -511.8 766.65 -512.85 763.55 -513.8 762.75 -524.75 752.9 -542.65 751 -558.6 749.35 -574.8 754.25 Z"/>
</g>

<g id="Layer1_13_FILL">
<path fill="#612A2D" stroke="none" d="
M -371.85 761
Q -374.5 765.2 -372.55 768.1 -372.15 768.75 -370.55 769 -369.25 769.2 -368.1 769
L -351.05 766.65 -335.05 766.75
Q -324.25 766.8 -312.4 770.1 -303.9 772.45 -290.2 778 -289 778.45 -287.05 776.95 -285.1 775.45 -285 774.2 -284.85 773 -285.2 771.15 -285.65 769.1 -286.35 768.4
L -293.9 760.95
Q -309.85 749.8 -328.1 748.35 -345.75 746.95 -364.25 754.7 -369.25 756.8 -371.85 761 Z"/>
</g>

<g id="Layer1_14_FILL">
<path fill="#EAC6A6" stroke="none" d="
M -453.05 889.8
L -467.7 888.25
Q -471.15 887.85 -473.7 890.15 -475.9 892.05 -477.15 895.55 -478.05 898.1 -476.95 900.8 -475.85 903.7 -473.05 905.3 -470.45 906.8 -466.15 906.8 -461.05 906.5 -458.45 906.45
L -427.95 906.05
Q -423 905.95 -420.4 905.65 -416.15 905.15 -413.5 903.8 -410.5 902.3 -409.35 899 -408.25 895.9 -409.2 892.9 -410 890.35 -412.4 888.55 -415 886.55 -418 886.8
L -453.05 889.8 Z"/>
</g>

<g id="Layer1_15_FILL">
<path fill="#612A2D" stroke="none" d="
M -371.85 761
Q -374.5 765.2 -372.55 768.1 -372.15 768.75 -370.55 769 -369.25 769.2 -368.1 769
L -351.05 766.65 -335.05 766.75
Q -324.25 766.8 -312.4 770.1 -303.9 772.45 -290.2 778 -289 778.45 -287.05 776.95 -285.1 775.45 -285 774.2 -284.85 773 -285.2 771.15 -285.65 769.1 -286.35 768.4
L -293.9 760.95
Q -309.85 749.8 -328.1 748.35 -345.75 746.95 -364.25 754.7 -369.25 756.8 -371.85 761 Z"/>
</g>

<g id="Layer1_16_FILL">
<path fill="#AA352E" stroke="none" d="
M 336.55 695.35
Q 334.4 735.85 379.35 738.65 424.35 741.45 410.35 712.15 396.4 682.8 407.1 659.5 338.7 654.8 336.55 695.35
M 464.05 677.5
Q 457.3 668.85 447.75 668.85 438.2 668.85 433.1 677.1 428.05 685.3 432.75 696.35 437.45 707.4 437.8 717.65 438.2 727.85 447.75 727.85 457.3 727.85 464.05 719.2 470.75 710.55 470.75 698.35 470.75 686.15 464.05 677.5
M 503.15 558.15
Q 509.421875 484.26953125 557.15 428.1 509.1755859375 451.820703125 484.15 482.1 491.265234375 538.2484375 503.15 558.15
M 1078.6 738.9
Q 1123.5962890625 736.0982421875 1121.45 695.55 1119.3048828125 655.05234375 1050.9 659.75 1061.6 683.05 1047.65 712.4 1033.651171875 741.7005859375 1078.6 738.9
M 1010.25 669.1
Q 1000.7 669.1 993.95 677.75 987.25 686.4 987.25 698.6 987.25 710.8 993.95 719.45 1000.7 728.1 1010.25 728.1 1019.7982421875 728.105859375 1020.15 717.85 1020.555078125 707.632421875 1025.25 696.6 1029.9447265625 685.567578125 1024.85 677.3 1019.8015625 669.094140625 1010.25 669.1
M 935.5 467.35
Q 943.812109375 502.980078125 958.25 548.15 971.6314453125 529.5986328125 976.25 487.1 803.1169921875 338.7625 613.15 408.1 651.346875 458.01328125 709.2 472.1 685.29765625 447.2583984375 700.2 408.1 766.6486328125 483.8626953125 935.5 467.35 Z"/>
</g>

<path id="Layer1_0_1_STROKES" stroke="#FFFFFF" stroke-width="55" stroke-linejoin="round" stroke-linecap="round" fill="none" d="
M 1207.9 891.3
L 717.35 891.55
Q 711.1 902 700.65 907.4 689.8 913.05 678.2 911.15
L 675.1 910
Q 674.7 909.85 673.95 910.6 673.85 910.75 672.85 911.9 655.15 922.4 633.55 921.65 608.15 922.25 587.9 915.9 563.7 908.25 550.4 891.55
L 426.7 891.55 426.55 863.4 541.2 863.4
Q 542.95 832.7 568.35 813.05 590.95 795.55 624.15 792
L 655.05 791.5
Q 643.1 774.7 632.75 755.6 623.4 738.35 614.55 717.7 602.6 689.9 594.7 664.25 588.5 644.05 586.2 635.3 581.9 619.15 580.1 605.7 579.6 602.1 581.05 598.4 582.45 594.85 585 592.65 587.65 590.4 591.55 589.95 595.45 589.55 599 591
L 629.35 603.65
Q 641.7 608.8 653.65 615.75 664.75 622.2 676.9 631.05
L 672.6 596.35
Q 669.95 575.35 669.45 569.6 668.05 554.5 668.7 542.7 669.1 534.6 672.6 526.3 675.4 519.5 680.65 511.7 685.55 504.45 689.25 499.9 694.15 493.8 699.25 489.25
L 708.65 480.85
Q 717.65 455.5 726.15 435.15 736.05 411.35 746.75 390.75 774.35 337.8 811.75 298.2 850.65 257 901.1 229.15 943 206.05 993.4 193.8 1042.7 181.85 1091.6 182.3 1110.4 182.45 1117.2 182.75 1131.35 183.4 1142.6 185.45
L 1189.15 193.95 1211.6 199.4
Q 1221.5 184.05 1232.2 175.5 1243.55 166.45 1259.75 161.7 1275.85 157 1291.35 159.6 1303.55 161.65 1314.2 166.9 1321.55 170.5 1328.2 175.65 1344.3 188.1 1353.1 207.15 1360.5 223.2 1360.05 241.6 1359.65 259.35 1352.75 274.65 1345.85 290.05 1332.85 301.9 1315 318.1 1291.25 321.15 1267.75 324.15 1245.8 313.45 1225.2 303.45 1214.4 284.75
L 1208.65 274.8
Q 1186.8 283.85 1175.15 300.15 1162.55 317.65 1164.7 339.7 1166.75 360.4 1173.8 377.5
L 1196.7 433.5 1215.35 475.85
Q 1216.05 477.4 1218.2 479.45 1219.4 480.6 1221.55 482.55
L 1230.45 491.55
Q 1238.2 499.45 1242.95 505.5 1249.15 513.5 1252.7 521.4 1261.85 541.5 1260.2 555.5
L 1254.1 605.85 1250.55 630.3
Q 1261.95 622.75 1269.85 618.05 1280.15 611.9 1289.55 607.55
L 1325.05 591.15
Q 1329 589.3 1333.15 589.8 1336.95 590.25 1340.2 592.5 1347.75 597.85 1345.85 607.85 1333.5 673.8 1301.25 741.05 1294.2 755.85 1287.25 767.1 1279.25 780.1 1269.75 791.35
L 1287.15 791.05
Q 1309.85 790.65 1335 801.15 1356.15 810.15 1368.5 825.25 1382.1 841.85 1382.9 863.45
L 1497.95 863.4 1497.9 891.55 1373.05 891.55
Q 1369.45 896.65 1365 900.6 1360.9 904.2 1355.3 907.5 1339.9 916.55 1321.2 919.85 1303.95 922.85 1284.6 920.9 1263.8 918.8 1249.55 910.5
L 1243.15 912.2
Q 1232.3 912.4 1222.75 906.55 1213.45 900.95 1207.9 891.3 Z
M 1321.7 208.85
Q 1318.55 204.45 1314.65 200.7 1303.3 189.9 1284.25 188.05 1273.6 187 1262.85 191.05 1252.6 194.95 1244.75 202.5 1239.1 207.95 1235.8 213.65 1232.45 219.4 1230.6 226.85 1227.85 238.2 1229.95 249.7 1230 249.9 1230.05 250.15 1232.1 261 1238.25 270.2 1238.4 270.4 1238.55 270.6 1244.4 271.55 1250.7 271.55 1280.3 271.55 1301.2 250.6 1319 232.85 1321.7 208.85 1325.2 213.85 1327.7 219.7 1332.4 230.85 1332.2 242.55 1332.05 252.8 1327.4 262.65 1322.9 272.35 1315.05 279.7 1297.65 296.1 1275.5 293.45 1252 290.6 1238.55 270.6
M 1215.65 715.2
Q 1222.012109375 699.068359375 1225.05 693.3 1233.75 676.8 1247.3 666.2 1279.05 641.35 1314.2 626.4
L 1300.15 672.2 1289 701.95 1275.75 731.7
Q 1260.15 766.7 1234.7 790.6 1223.85 800.35 1215.8 805.7 1205 812.85 1192.8 816.85 1193.19140625 814.246484375 1193.575 811.65
L 1193.6 811.5
Q 1193.6236328125 811.3498046875 1193.65 811.2
L 1193.7 810.9 1193.75 810.475
Q 1193.765234375 810.3966796875 1193.775 810.325 1193.8005859375 810.1685546875 1193.825 810
L 1196.5 791.7 1201.4 763.5
Q 1205 742.95 1211.55 725.8 1213.755078125 720.0275390625 1215.65 715.2 1218.25 712.5 1221 709.75 1253.45 677.2 1285.85 661.25 1279 697.3 1255.55 737.85 1229.15 783.65 1197.1 808.3 1195.35 809.65 1193.7 810.9
M 1354.45 854.25
Q 1356.6 894.75 1311.65 897.55 1266.65 900.35 1280.65 871.05 1294.6 841.7 1283.9 818.4 1352.3 813.7 1354.45 854.25 Z
M 920.6 402.55
Q 901.9 405.1 881.25 407.5 809.85 419.5 741.15 452.75 886.85 150.4 1180.05 211.3 1187.6 212.9 1199.3 215.45 1198.35 218.5 1197.7 221.5 1196 228.75 1195.75 235.6 1195.4 245.2 1198.35 256.15 1177.6 267.1 1164.7 282.1 1159.95 289.05 1154.7 296.4 1154.55 296.65 1154.4 296.9 1123.05 353.9 1180.95 457.4 1068.5 394.25 967.2 400.75 943.75 400.55 920.6 402.55 1104.25 377.45 1154.4 296.9
M 1218.425 521.875
Q 1211.764453125 513.2708984375 1202.05 506.15
L 1185.2 493.9 1149.7 472.45 1133 464.15 1112.75 455.35
Q 1072.9 439.6 1031.3 432 987.35 423.95 947.05 426.05 894.6 428.85 847.9 442.6 846.596875 442.98359375 845.3 443.375 845.0533203125 443.4494140625 844.8 443.525 844.067578125 443.747265625 843.325 443.975 842.8302734375 444.1271484375 842.325 444.275 813.5794921875 453.2140625 786.575 466.5 786.243359375 466.680078125 785.9 466.85 785.011328125 467.2947265625 784.125 467.725 778.0578125 470.769921875 772.25 473.9 768.1509765625 476.1115234375 764.175 478.35 694.56640625 517.2556640625 696.4 548.6
L 701.85 589.25
Q 706.35 585.35 710.9 581.55 732.55 563.05 756.95 548.6 780.25 534.8 805.3 524.5 830.3 514.15 856.45 507.1 883.95 499.5 912.4 496.95 941.7 493.95 971.1 495.65 998.75 497.2 1025.8 502.65 1053.4 508.25 1080.05 517.2 1108.1 526.5 1141.9 546.4 1175.65 566.25 1194.55 582.25 1213.4 598.2 1215.85 571.6 1218.25 545 1218.75 522.3 1218.591796875 522.092578125 1218.425 521.875 1218.79609375 522.3384765625 1219.15 522.8 1219.2103515625 522.889453125 1219.275 522.975 1219.3287109375 523.045703125 1219.375 523.125 1219.540625 523.3314453125 1219.7 523.55 1226.2625 532.64296875 1229.1 542.775 1229.5802734375 544.4439453125 1229.95 546.15 1231.020703125 551.0279296875 1230.65 557.25 1230.6275390625 557.8029296875 1230.6 558.35 1230.55 559.25 1230.5 560.15
L 1230.45 560.85
Q 1227.35 608.15 1219.95 629.85 1166.4 583.45 1123.25 564.8 1080.05 546.1 1064.7 540.95 1049.3 535.8 1022.7 531.85 991 527.35 958.9 527.4 936.25 527.45 913.7 530.1 888.8 533.1 864.65 539.6 844.2 545.05 824.6 552.9 800.5 562.5 777.95 575.15 753.4 588.85 731.45 606.45 722.3345703125 613.823828125 713.5 621.625 710.8708984375 623.984765625 708.25 626.375
L 707.4 627.15 702.775 595.75
Q 702.6958984375 595.224609375 702.625 594.7
L 702.325 592.675
Q 702.2654296875 592.2056640625 702.2 591.725
L 701.85 589.25
M 988.25 653.75
L 958.3 650.75
Q 946.1 649.55 933 646.3 922.15 643.6 908.35 638.85 862.9 623.15 820.55 581.2 817.8798828125 583.546875 815.175 586.275 801.329296875 599.686328125 790.45 613.8 791.4865234375 614.362109375 792.525 614.925 864.0890625 653.5828125 894.65 659.35 925.65 665.15 948.2 664.3 970.7 663.45 988.25 653.75
L 974.8 640.2 961.4 626.7 950.5 611.9
Q 948.55 609.3 947.05 605.9 945.9 603.3 944.45 598.95 956.55 607.4 965.85 612.85 977.1 619.45 988.2 624 1003 630.1 1015.45 633.7 1029.95 637.95 1043.7 639.6
L 1082.05 644.15 1131.9 644.1 1155.15 641.9
Q 1158.8029296875 654.1400390625 1162 667.2 1162.2375 668.075 1162.45 668.95 1162.6296875 669.6984375 1162.8 670.45 1168.3283203125 693.7283203125 1172.45 719.55 1173.05 723.2 1175.05 731.15 1175.7556640625 734.34765625 1176 737.05 1194.083203125 853.04609375 1137.65 862.85
L 802.85 862.85
Q 762.25 867.6 753.1 816.6 743.9 765.6 752.9 700.45 756.5 674.05 768.3 649.5 777.1 631.15 790.45 613.8
M 786.575 466.5
Q 785.3453125 467.1021484375 784.125 467.725
M 708.5 709.5
L 708.725 710.05
Q 708.8359375 710.3255859375 708.95 710.6
L 712.1 718.2 722.5 749.65 730.15 802.2 731.3 807.3 733.8 818.25
Q 715.3 811 698.6 796.5
L 679.05 777.1
Q 660.05 753.85 641.85 711.95 627.4 678.65 616.1 640.15
L 612.05 626.3 632.9 636.4
Q 661.9 650.4 682.3 668.7 697.1 681.9 704.2 699.15 706.073046875 703.666015625 707.95 708.175 708.0828125 708.49921875 708.225 708.825
L 708.5 709.5 708.475 709.475
Q 676.1431640625 677.1466796875 643.85 661.25 650.75 697.3 674.15 737.85 700.05 782.7 731.3 807.3
M 708.225 708.825
L 708.475 709.475
M 881.725 680.1
Q 873.880078125 676.5548828125 863.9 675.5 852.9181640625 674.3705078125 841.825 676.35 841.002734375 676.485546875 840.175 676.65 836.2498046875 677.4140625 832.3 678.575 832.1392578125 678.626171875 831.975 678.675 831.858203125 678.7173828125 831.75 678.75 820.25 682.25 811.6 691.05 803 699.8 806.45 704.25 807.2 705.2 809.45 705.5 811.7 705.8 813.05 705.15 838.55 693.45 863.1 693.85 868.55 693.9 879.85 695.05 888.4 695.9 892.2 695.3 893.1 695.2 894.05 693.6 895 692.05 894.75 691.15 893.7 688.05 892.75 687.25 888.4921875 683.4166015625 883.2 680.8 882.473828125 680.4400390625 881.725 680.1 882.11796875 680.26953125 882.5 680.45 882.85625 680.61875 883.2 680.8
M 736.15 716.8
Q 724.25 696.9 717.15 640.75 742.2 610.45 790.15 586.75 742.4 642.9 736.15 716.8 Z
M 879.1 779.3
Q 887.8 770.2 888.7 756.95 889.6 744.35 883.25 733.05 879.95 727.15 874.45 723.6 869.15 720.25 862.9 719.7 856.3 719.15 850.4 721.65 844.6 724.15 840.3 729.3 831.1 740.25 831.35 754.3 831.65 768.35 841.3 778.8 849.1 787.25 859.85 787.55 870.9 787.85 879.1 779.3 Z
M 846.15 566.75
Q 1036.1 497.4 1209.25 645.75 1204.65 688.25 1191.25 706.8 1176.8 661.65 1168.5 626 999.65 642.5 933.2 566.75 918.3 605.9 942.2 630.75 884.35 616.65 846.15 566.75 Z
M 1218.75 522.3
Q 1218.9478515625 522.5501953125 1219.15 522.8
M 1229.1 542.775
Q 1230.8830078125 549.7515625 1230.65 557.25
M 1116.35 702.5
Q 1117.55 702.95 1119.5 701.45 1121.45 699.95 1121.55 698.7 1121.7 697.5 1121.35 695.65 1120.9 693.6 1120.2 692.9
L 1112.65 685.45
Q 1096.7 674.3 1078.45 672.85 1060.8 671.45 1042.3 679.2 1037.3 681.3 1034.7 685.5 1032.05 689.7 1034 692.6 1034.4 693.25 1036 693.5 1037.3 693.7 1038.45 693.5
L 1055.5 691.15 1071.5 691.25
Q 1082.3 691.3 1094.15 694.6 1102.65 696.95 1116.35 702.5 Z
M 1078.85 784.55
Q 1092.8 776.3 1095.3 759.8 1097.6 744.25 1088.95 731.15 1084.9 725.05 1078.6 721.8 1071.9 718.35 1064.8 719.2 1058.15 720 1052.3 724.1 1046.55 728.1 1043.1 734.1 1038 743.1 1038.25 753.75 1038.55 764.05 1043.7 773.4 1049.05 782.95 1059.1 786.4 1069.6 790 1078.85 784.55 Z
M 974.8 640.2
Q 1063.68515625 675.8939453125 1162.425 668.95
L 1162.45 668.95
M 569.55 854
Q 567.4 894.5 612.35 897.3 657.35 900.1 643.35 870.8 629.4 841.45 640.1 818.15 571.7 813.45 569.55 854 Z
M 1258.25 855.25
Q 1253.55 866.3 1253.2 876.55 1252.8 886.75 1243.25 886.75 1233.7 886.75 1226.95 878.1 1220.25 869.45 1220.25 857.25 1220.25 845.05 1226.95 836.4 1233.7 827.75 1243.25 827.75 1252.8 827.75 1257.9 836 1262.95 844.2 1258.25 855.25 Z
M 944.65 813.375
Q 947.430078125 813.9322265625 949.8 814.3 961.95 816.35 972.65 815.2
L 988.55 813.55 993.15 812.375 993.175 812.375 1005.25 809.35
Q 1006.4 809.05 1007.7 809.1 1009.35 809.15 1009.8 809.8 1012.05 812.45 1009.9 816.9 1007.75 821.4 1003 824.05 985.45 833.75 967.75 834.25 956.270703125 834.594921875 945.275 831.05 938.7546875 828.934765625 932.4 825.45
L 924.1 818.85
Q 923.3 818.25 922.65 816.3 922.05 814.45 922.1 813.25 922.05 812 923.85 810.3 925.65 808.55 926.9 808.9 937.1541015625 811.824609375 944.55 813.35
L 945.275 813.425 944.65 813.375
Q 944.5943359375 813.3634765625 944.55 813.35
M 665.75 855
Q 670.45 866.05 670.8 876.3 671.2 886.5 680.75 886.5 690.3 886.5 697.05 877.85 703.75 869.2 703.75 857 703.75 844.8 697.05 836.15 690.3 827.5 680.75 827.5 671.2 827.5 666.1 835.75 661.05 843.95 665.75 855 Z"/>
</defs>

<g transform="matrix( 1, 0, 0, 1, -29.1,-117.05) ">
<use xlink:href="#Layer1_0_FILL"/>

<use xlink:href="#Layer1_0_1_STROKES"/>
</g>

<g transform="matrix( 1, 0, 0, 1, 1377.45,-192.55) ">
<use xlink:href="#Layer1_1_FILL"/>
</g>

<g transform="matrix( 1, 0, 0, 1, 1377.45,-192.55) ">
<use xlink:href="#Layer1_2_FILL"/>
</g>

<g transform="matrix( 1, 0, 0, 1, 203.9,41.6) ">
<use xlink:href="#Layer1_3_FILL"/>
</g>

<g transform="matrix( 1, 0, 0, 1, 1377.45,-192.55) ">
<use xlink:href="#Layer1_4_FILL"/>
</g>

<g transform="matrix( 1, 0, 0, 1, 1377.45,-192.55) ">
<use xlink:href="#Layer1_5_FILL"/>
</g>

<g transform="matrix( 1, 0, 0, 1, 1377.45,-192.55) ">
<use xlink:href="#Layer1_6_FILL"/>
</g>

<g transform="matrix( 1, 0, 0, 1, 1377.45,-192.55) ">
<use xlink:href="#Layer1_7_FILL"/>
</g>

<g transform="matrix( 1, 0, 0, 1, 203.9,41.6) ">
<use xlink:href="#Layer1_8_FILL"/>
</g>

<g transform="matrix( 1, 0, 0, 1, 203.9,41.6) ">
<use xlink:href="#Layer1_9_FILL"/>
</g>

<g transform="matrix( 1, 0, 0, 1, 1377.45,-192.55) ">
<use xlink:href="#Layer1_10_FILL"/>
</g>

<g transform="matrix( 1, 0, 0, 1, 1377.45,-192.55) ">
<use xlink:href="#Layer1_11_FILL"/>
</g>

<g transform="matrix( 1, 0, 0, 1, 1377.45,-192.55) ">
<use xlink:href="#Layer1_12_FILL"/>
</g>

<g transform="matrix( 1, 0, 0, 1, 1377.45,-192.55) ">
<use xlink:href="#Layer1_13_FILL"/>
</g>

<g transform="matrix( 1, 0, 0, 1, 1377.45,-192.55) ">
<use xlink:href="#Layer1_14_FILL"/>
</g>

<g transform="matrix( -0.9940643310546875, 0.1087646484375, -0.1087646484375, -0.9940643310546875, 693.9,1496.8) ">
<use xlink:href="#Layer1_15_FILL"/>
</g>

<g transform="matrix( 1, 0, 0, 1, 203.9,41.6) ">
<use xlink:href="#Layer1_16_FILL"/>
</g>
</svg>
